####
#
# OBJ File Generated by Meshlab
#
####
# Object forceps.obj
#
# Vertices: 252
# Faces: 500
#
####
mtllib ./forceps.obj.mtl

vn -0.1012755 0.9811893 0.1643503
v -0.0000099 0.0000684 -0.0001122
vn -0.1203496 0.9879239 -0.0975820
v -0.0001126 0.0000592 -0.0001085
vn -0.1525176 0.8907197 -0.4282019
v -0.0007404 -0.0000493 -0.0001184
vn -0.1660216 0.7531130 -0.6365986
v -0.0011101 -0.0001144 -0.0001162
vn -0.1734405 0.9844325 -0.0284783
v -0.0009916 -0.0000895 -0.0000645
vn -0.1480566 0.9889779 0.0014110
v -0.0005660 -0.0000184 -0.0000327
vn -0.1710635 0.9652267 0.1976732
v -0.0010353 -0.0000974 0.0000267
vn -0.1352471 0.6347055 0.7608267
v -0.0010554 -0.0001088 0.0000410
vn -0.0543736 0.8597577 0.5077994
v -0.0000993 0.0000572 0.0000389
vn -0.1640283 0.9111896 -0.3779264
v 0.0000970 0.0000855 0.0000262
vn -0.3589947 0.9331949 0.0164354
v 0.0003199 0.0001252 -0.0000138
vn -0.0013580 0.5040347 0.8636823
v 0.0003299 0.0001189 0.0000021
vn -0.0981516 0.8006179 -0.5910814
v 0.0003332 0.0001232 -0.0000841
vn -0.3622895 0.4860669 0.7952895
v 0.0002211 0.0000964 -0.0000755
vn -0.6808568 -0.4444532 0.5821474
v 0.0002881 0.0000977 -0.0000358
vn -0.0579268 0.4559052 0.8881413
v 0.0007447 0.0001813 -0.0000012
vn -0.1644012 0.9750092 0.1494299
v 0.0005796 0.0001676 -0.0000292
vn 0.1108489 -0.6753353 0.7291329
v 0.0000248 0.0000387 -0.0001013
vn 0.4173993 -0.8330252 -0.3631072
v -0.0010210 -0.0001612 -0.0001114
vn 0.1717644 -0.9581773 -0.2288956
v -0.0006610 -0.0000887 -0.0001129
vn 0.0445463 -0.1609546 -0.9859560
v -0.0011025 -0.0002005 -0.0001147
vn 0.1087904 -0.5371316 -0.8364535
v -0.0008512 -0.0001133 -0.0001235
vn 0.2788517 -0.9602073 0.0156135
v -0.0009209 -0.0001386 -0.0000667
vn 0.1881752 -0.9795299 0.0714935
v -0.0007230 -0.0001016 0.0000004
vn 0.1753780 -0.7196047 0.6718718
v -0.0008876 -0.0001248 0.0000467
vn 0.5061072 -0.7392932 0.4441860
v -0.0010224 -0.0001651 0.0000424
vn 0.2980821 -0.9288896 -0.2197984
v -0.0000584 0.0000120 0.0000313
vn 0.4825235 -0.8636439 -0.1459120
v -0.0001109 0.0000043 -0.0000206
vn 0.1447074 -0.8204944 0.5530360
v -0.0003934 -0.0000435 0.0000382
vn 0.1803315 -0.9357554 0.3030550
v 0.0001388 0.0000478 0.0000231
vn 0.1260752 -0.5845135 0.8015291
v 0.0003591 0.0000836 0.0000015
vn 0.1930226 -0.9120704 -0.3617595
v 0.0004651 0.0000954 -0.0000708
vn 0.0505733 0.2261859 -0.9727705
v 0.0000535 0.0000651 -0.0001213
vn 0.1677762 -0.6353216 -0.7538022
v 0.0000824 0.0000401 -0.0001125
vn 0.8554906 0.1198397 0.5037601
v -0.0000953 0.0000222 -0.0000669
vn 0.1061125 -0.1213801 -0.9869180
v 0.0002934 0.0000847 -0.0000911
vn -0.2691951 -0.7269515 0.6317244
v 0.0002552 0.0000757 -0.0000688
vn -0.1364033 0.3013545 0.9437053
v -0.0012603 -0.0001523 0.0000345
vn -0.0254299 0.1194016 0.9925203
v -0.0009155 -0.0001086 0.0000487
vn -0.0054733 -0.1906696 -0.9816390
v 0.0000334 0.0000438 0.0000218
vn 0.4193325 0.2496282 -0.8728380
v -0.0000635 0.0000417 0.0000157
vn 0.0864241 -0.2873791 0.9539099
v -0.0000165 0.0000336 0.0000441
vn -0.2436807 0.0298667 -0.9693956
v 0.0002143 0.0000903 0.0000008
vn 0.0861998 0.1000122 0.9912453
v 0.0001146 0.0000674 0.0000345
vn -0.1005382 0.7370470 -0.6683216
v 0.0008024 0.0001990 -0.0000657
vn 0.0495961 -0.5573067 -0.8288242
v 0.0009713 0.0001876 -0.0000641
vn 0.0443664 -0.0137642 -0.9989205
v 0.0007176 0.0001668 -0.0000762
vn -0.1983226 0.0373905 0.9794234
v -0.0013793 -0.0001994 0.0000221
vn -0.5773411 0.4324027 0.6926075
v -0.0015033 -0.0002001 -0.0000134
vn -0.2446399 0.8494118 0.4676012
v -0.0013604 -0.0001568 0.0000113
vn -0.2737042 0.8887830 -0.3676286
v -0.0013926 -0.0001655 -0.0000781
vn -0.0961752 0.1762335 -0.9796388
v -0.0012187 -0.0001498 -0.0001154
vn -0.2188910 0.1285024 -0.9672506
v -0.0014333 -0.0001991 -0.0000924
vn -0.1525813 0.9605929 0.2323368
v 0.0009606 0.0002314 -0.0000243
vn 0.1389153 -0.5728092 0.8078318
v 0.0008729 0.0001680 -0.0000062
vn 0.1693679 -0.9822483 0.0806397
v 0.0006439 0.0001224 -0.0000220
vn 0.1041168 0.2023301 0.9737670
v 0.0009882 0.0002171 -0.0000077
vn 0.2602708 0.6475755 0.7161739
v 0.0010819 0.0002453 -0.0000369
vn -0.2183463 -0.7779022 -0.5892309
v 0.0010697 0.0002025 -0.0000953
vn -0.2521268 0.5662826 -0.7847012
v 0.0009885 0.0002337 -0.0000638
vn -0.6550934 -0.0395424 -0.7545125
v 0.0010661 0.0002423 -0.0000920
vn 0.3832924 -0.7632061 0.5201955
v 0.0010698 0.0001976 -0.0000361
vn -0.6599382 0.4414019 -0.6079853
v 0.0011552 0.0002601 -0.0002124
vn 0.6779565 0.2398818 0.6948609
v 0.0011563 0.0002513 -0.0000985
vn 0.5505136 -0.7158017 0.4296077
v 0.0011691 0.0002143 -0.0001140
vn -0.5225443 0.0064565 -0.8525877
v 0.0012351 0.0002501 -0.0002966
vn 0.0809073 0.9173603 0.3897487
v 0.0012447 0.0002764 -0.0002303
vn -0.4927907 -0.6767727 -0.5469334
v 0.0011617 0.0002246 -0.0002118
vn 0.0308969 -0.7337925 -0.6786706
v 0.0013201 0.0002491 -0.0003225
vn -0.0834397 -0.1903268 0.9781685
v 0.0013425 0.0002690 -0.0002597
vn 0.4079973 -0.8137340 -0.4139749
v 0.0014276 0.0002556 -0.0002798
vn -0.4775737 -0.7328317 0.4846452
v 0.0014234 0.0002583 -0.0002264
vn 0.4138975 -0.7759964 0.4759395
v 0.0012723 0.0002342 -0.0002404
vn -0.0043898 0.6384516 -0.7696495
v 0.0013340 0.0002792 -0.0003190
vn 0.2561360 0.9646395 -0.0621697
v 0.0014749 0.0003128 -0.0001488
vn 0.0553588 -0.9977504 0.0378093
v 0.0014652 0.0002604 -0.0000874
vn 0.5955179 0.2524193 -0.7626552
v 0.0014474 0.0002863 -0.0002742
vn 0.1304547 0.9682233 -0.2133663
v 0.0014354 0.0003064 -0.0002600
vn -0.9445968 -0.3156494 0.0900130
v 0.0014349 0.0002773 -0.0000003
vn -0.4788824 -0.8485291 0.2251001
v 0.0014545 0.0002732 0.0001662
vn 0.9680462 0.2478946 -0.0378780
v 0.0014951 0.0002895 -0.0001067
vn -0.7720178 0.4610800 0.4374857
v 0.0014183 0.0002905 -0.0002168
vn 0.9270144 0.1721321 -0.3331889
v 0.0014846 0.0002850 -0.0002186
vn 0.7541620 -0.6523563 -0.0753059
v 0.0014894 0.0002711 -0.0001588
vn 0.5542333 0.3462737 0.7569149
v 0.0014736 0.0002836 0.0001985
vn 0.5328345 0.8420774 0.0836244
v 0.0014825 0.0003083 0.0000819
vn 0.8455324 -0.5299733 0.0648342
v 0.0014929 0.0002786 0.0000477
vn -0.5457403 0.8377534 0.0183558
v 0.0014385 0.0003069 -0.0001123
vn -0.7666382 0.5978491 0.2341846
v 0.0014463 0.0003013 0.0001413
vn 0.3274806 -0.1585088 0.9314674
v -0.0000355 -0.0002068 -0.0000451
vn 0.0606408 0.9659187 0.2516421
v 0.0000569 -0.0001904 -0.0000521
vn -0.1199447 0.1008104 0.9876490
v 0.0001638 -0.0002079 -0.0000272
vn 0.0029075 0.9999488 -0.0096911
v -0.0005959 -0.0001898 -0.0000655
vn 0.0282587 0.9960706 0.0839332
v -0.0008291 -0.0001916 -0.0000029
vn 0.0756208 0.8384186 -0.5397552
v -0.0008738 -0.0001898 -0.0001030
vn 0.6085557 0.7824717 0.1319020
v -0.0010094 -0.0001753 -0.0000154
vn 0.0929702 0.7671597 0.6346831
v -0.0009677 -0.0001935 0.0000530
vn -0.0079690 0.9783320 0.2068891
v -0.0004023 -0.0001957 0.0000693
vn 0.4803278 -0.4012301 -0.7799356
v -0.0000482 -0.0002055 0.0000752
vn -0.0400316 0.4483906 0.8929408
v -0.0000579 -0.0002031 0.0000958
vn 0.1150259 0.9673273 0.2259359
v 0.0000516 -0.0001989 0.0000905
vn -0.1240255 0.9740956 0.1890915
v 0.0002724 -0.0001950 0.0000742
vn -0.0057183 0.8967252 0.4425508
v 0.0006801 -0.0001887 0.0000676
vn 0.0047049 0.9996485 -0.0260943
v 0.0008007 -0.0001844 0.0000365
vn -0.1286471 -0.9023675 0.4113183
v -0.0000800 -0.0002398 -0.0000548
vn 0.0047051 -0.9758005 -0.2186122
v 0.0000750 -0.0002347 -0.0000570
vn 0.0060762 -0.9790348 -0.2036027
v -0.0010022 -0.0002441 -0.0000859
vn -0.0303106 -0.9216466 -0.3868446
v -0.0012503 -0.0002416 -0.0000971
vn -0.0096010 -0.5673808 -0.8233995
v -0.0011172 -0.0002357 -0.0001089
vn 0.0368289 -0.9987879 -0.0326564
v -0.0006714 -0.0002438 -0.0000515
vn 0.1420907 -0.9896765 0.0187269
v -0.0005066 -0.0002289 -0.0000230
vn 0.0181865 -0.9996263 0.0204114
v -0.0007181 -0.0002500 0.0000563
vn -0.0768592 -0.6176434 0.7826936
v -0.0011264 -0.0002463 0.0000481
vn -0.0247745 -0.6855431 0.7276104
v -0.0006034 -0.0002448 0.0000731
vn 0.1988001 -0.9322520 -0.3022992
v -0.0000614 -0.0002442 0.0000887
vn 0.0628919 -0.4916589 0.8685138
v 0.0001438 -0.0002277 0.0000886
vn -0.5618647 0.2957388 -0.7725585
v 0.0002734 -0.0002177 0.0000553
vn -0.0900346 -0.9800795 0.1770252
v 0.0003267 -0.0002397 0.0000614
vn -0.2860488 -0.9579268 -0.0235060
v 0.0003143 -0.0002352 -0.0000013
vn -0.0104112 -0.8565701 0.5159256
v 0.0006821 -0.0002369 0.0000741
vn 0.0236412 -0.7645559 -0.6441237
v 0.0006405 -0.0002361 0.0000073
vn 0.1299000 0.2412668 -0.9617258
v 0.0001154 -0.0002073 -0.0000594
vn -0.0205132 -0.9997120 0.0124555
v -0.0011539 -0.0002498 0.0000183
vn -0.2522574 -0.8484266 0.4653371
v -0.0014084 -0.0002376 0.0000083
vn -0.0146804 -0.0457364 0.9988457
v -0.0011469 -0.0002033 0.0000517
vn -0.0446633 -0.3189835 -0.9467074
v 0.0001115 -0.0002310 0.0000784
vn 0.1040124 -0.2689412 -0.9575239
v 0.0003263 -0.0002186 -0.0000263
vn 0.0504408 0.5977438 -0.8000988
v 0.0007127 -0.0001918 0.0000075
vn -0.0566948 0.9252318 -0.3751425
v 0.0010229 -0.0001854 0.0000296
vn -0.0062428 -0.0655967 0.9978267
v 0.0006162 -0.0002184 0.0000780
vn 0.0197437 0.0211480 -0.9995814
v 0.0008833 -0.0002237 0.0000157
vn -0.7252722 -0.2284824 -0.6494429
v -0.0015054 -0.0002083 -0.0000683
vn -0.1919776 -0.8561559 -0.4797309
v -0.0014305 -0.0002364 -0.0000821
vn -0.0951173 -0.4188738 -0.9030491
v -0.0013501 -0.0002302 -0.0001011
vn -0.0553402 -0.1017226 -0.9932724
v -0.0012488 -0.0002115 -0.0001104
vn 0.4520478 -0.6414747 0.6198089
v 0.0011244 -0.0002360 0.0000491
vn 0.1194886 -0.5217824 0.8446690
v 0.0010200 -0.0002365 0.0000807
vn -0.0001478 -0.9993157 -0.0369886
v 0.0004650 -0.0002410 0.0000378
vn 0.0669006 0.6840143 0.7263944
v 0.0010229 -0.0001951 0.0000830
vn 0.3944003 0.4241879 0.8151767
v 0.0011315 -0.0001982 0.0000534
vn 0.0169658 -0.9992897 0.0336511
v 0.0010623 -0.0002377 0.0000608
vn -0.4771754 -0.0663997 -0.8762960
v 0.0010836 -0.0002098 0.0000034
vn -0.1163233 -0.8629425 -0.4917307
v 0.0010691 -0.0002353 0.0000168
vn 0.6377896 0.4412575 0.6312815
v 0.0012169 -0.0001905 -0.0000344
vn 0.5293143 -0.7117254 0.4618154
v 0.0012180 -0.0002304 -0.0000463
vn -0.5879833 -0.4531662 -0.6700120
v 0.0011951 -0.0002258 -0.0001101
vn -0.5416005 0.6157513 -0.5722929
v 0.0011837 -0.0001831 -0.0000948
vn 0.0413451 0.9900592 0.1344377
v 0.0013552 -0.0001695 -0.0001780
vn 0.6547588 0.0695406 0.7526321
v 0.0012634 -0.0002149 -0.0000993
vn 0.0602739 -0.2897770 -0.9551944
v 0.0013766 -0.0002069 -0.0002187
vn -0.4555800 -0.0661580 -0.8877331
v 0.0012903 -0.0002012 -0.0002025
vn -0.6173047 -0.0017735 0.7867222
v 0.0014401 -0.0001883 -0.0001325
vn 0.2156377 0.0763713 0.9734823
v 0.0013445 -0.0001995 -0.0001521
vn 0.0570714 -0.9606034 0.2719998
v 0.0013588 -0.0002232 -0.0001716
vn 0.3896990 0.4865839 -0.7819021
v 0.0014418 -0.0001839 -0.0002004
vn 0.1624312 0.9706832 0.1771733
v 0.0015028 -0.0001741 -0.0000657
vn 0.7271998 0.6224206 -0.2894358
v 0.0015142 -0.0001815 -0.0001232
vn -0.4184301 -0.8941148 0.1596092
v 0.0014807 -0.0002225 -0.0000838
vn -0.1219377 -0.9920221 0.0319900
v 0.0014835 -0.0002337 0.0001797
vn 0.8673818 -0.4966553 -0.0313431
v 0.0015252 -0.0002176 0.0000001
vn -0.9848118 0.1697712 0.0363804
v 0.0014693 -0.0001963 0.0000306
vn 0.4813523 -0.7549195 -0.4454173
v 0.0014860 -0.0002164 -0.0001624
vn 0.9273312 0.3494067 0.1340591
v 0.0015176 -0.0002001 0.0001815
vn -0.9900967 0.0353839 0.1358551
v 0.0014649 -0.0002151 0.0002605
vn 0.4368118 0.4622692 0.7716882
v 0.0014939 -0.0002197 0.0003075
vn -0.2685622 0.9573809 0.1062838
v 0.0014797 -0.0001881 0.0001373
vn -0.2913873 0.9547079 0.0602187
v 0.0003581 -0.0001400 0.0000272
vn -0.1517573 -0.8357734 0.5276861
v 0.0003322 0.0000459 -0.0000475
vn -0.0025249 -0.9976421 0.0685854
v 0.0003393 0.0000719 -0.0000274
vn -0.5420786 0.2384055 0.8058001
v 0.0002832 -0.0002117 -0.0000016
vn 0.0397957 0.9377611 -0.3449933
v 0.0003225 -0.0001893 -0.0000140
vn -0.5209636 0.4512087 0.7245741
v 0.0003304 -0.0001756 0.0000401
vn 0.1325277 0.9732490 0.1876779
v 0.0003755 -0.0001865 0.0000450
vn 0.0175103 0.2483006 -0.9685248
v -0.0001206 0.0000298 -0.0001329
vn 0.3276372 -0.9438158 -0.0431932
v -0.0001155 0.0000013 -0.0001038
vn 0.1463583 -0.7612715 -0.6317001
v -0.0001185 0.0000079 -0.0001265
vn -0.0391334 0.1633710 -0.9857883
v -0.0006714 -0.0000542 -0.0001285
vn 0.0468817 -0.2382189 0.9700794
v -0.0005112 -0.0000523 0.0000472
vn -0.0645815 0.9715951 -0.2276668
v -0.0004589 -0.0000014 0.0000257
vn 0.0461984 0.7246711 -0.6875446
v -0.0000953 -0.0001956 -0.0000773
vn 0.0642895 -0.3910898 -0.9181044
v -0.0000823 -0.0002244 -0.0000798
vn 0.2726708 -0.9542398 -0.1227885
v -0.0000903 -0.0002288 0.0000167
vn 0.5454445 0.8156778 0.1927696
v -0.0000918 -0.0001899 -0.0000104
vn 0.0333046 0.0080330 -0.9994130
v -0.0006256 -0.0002160 -0.0001012
vn -0.0253651 0.7738677 0.6328392
v -0.0006892 -0.0002012 0.0000703
vn 0.0322502 -0.9598069 -0.2788022
v -0.0003273 -0.0002468 0.0000739
vn 0.1227978 -0.8360173 -0.5347857
v -0.0005034 -0.0002432 0.0000569
vn 0.1553928 -0.9165239 -0.3685609
v -0.0004512 -0.0002191 0.0000452
vn 0.0529003 -0.9648677 0.2573556
v -0.0004464 -0.0002329 -0.0000731
vn 0.0259983 -0.8288525 -0.5588628
v -0.0006013 -0.0002369 -0.0000940
vn 0.3274131 0.9447798 0.0138525
v -0.0004871 -0.0000085 -0.0000386
vn -0.1237033 0.9710528 -0.2043380
v -0.0001305 0.0000535 -0.0000093
vn -0.1149754 0.8418877 0.5272626
v -0.0003776 -0.0000218 -0.0000872
vn 0.2530835 0.9278318 0.2740017
v -0.0004573 -0.0000371 -0.0000623
vn -0.4167168 0.8827165 0.2171606
v -0.0001404 0.0000271 -0.0000751
vn -0.2745611 0.9404371 -0.2004855
v -0.0002159 -0.0000047 -0.0000256
vn -0.1717722 0.9510385 -0.2569437
v -0.0001490 0.0000465 -0.0001230
vn -0.2000369 0.9700494 0.1378018
v -0.0001558 0.0000482 0.0000297
vn -0.0688050 0.3732523 0.9251750
v -0.0001864 0.0000290 0.0000444
vn -0.1262073 0.7590885 0.6386365
v -0.0006281 -0.0000326 0.0000395
vn -0.0010103 0.9182507 0.3959983
v -0.0004211 0.0000037 -0.0001058
vn 0.1067996 0.8776451 -0.4672610
v -0.0004214 -0.0000261 0.0000031
vn -0.1381627 0.8141196 0.5640217
v -0.0001866 0.0000308 -0.0001006
vn -0.2181127 0.7861171 -0.5783138
v -0.0002253 0.0000257 0.0000182
vn 0.0378176 -0.9952918 -0.0892413
v -0.0003336 -0.0002054 0.0000122
vn -0.1622995 -0.9133441 0.3734453
v -0.0001226 -0.0002140 -0.0000464
vn 0.0489023 -0.9294823 0.3656107
v -0.0003441 -0.0002092 -0.0000491
vn 0.0212451 -0.7570197 -0.6530466
v -0.0002796 -0.0002265 0.0000634
vn -0.0425476 0.0265564 0.9987415
v -0.0006499 -0.0002230 0.0000764
vn -0.0967465 -0.6243982 0.7750916
v -0.0001309 -0.0002342 0.0000924
vn -0.1453677 -0.9119977 -0.3835732
v -0.0001189 -0.0002299 0.0000651
vn -0.0229149 -0.9876068 0.1552663
v -0.0001769 -0.0002324 -0.0000704
vn -0.2829829 -0.9450320 -0.1638147
v -0.0001237 -0.0002075 0.0000191
vn -0.1755271 -0.8840652 0.4331501
v -0.0000968 -0.0002419 0.0001086
vn -0.6036810 -0.4861700 0.6318291
v 0.0000093 0.0000557 -0.0000053
vn -0.5826901 -0.7004562 -0.4121085
v -0.0000156 0.0000674 -0.0000816
vn -0.0379632 0.0965996 -0.9945991
v 0.0000695 0.0000986 -0.0001492
vn 0.8457975 0.0447174 0.5316268
v 0.0001616 0.0001284 0.0000157
vn 0.0875982 0.9419720 0.3240609
v 0.0001179 0.0001504 0.0000352
vn 0.0244410 0.0933462 0.9953337
v 0.0000490 0.0001115 0.0000785
vn -0.7485971 -0.4371355 0.4985127
v -0.0000463 0.0000896 0.0000183
vn -0.2306712 0.9285305 -0.2908987
v 0.0000443 0.0001292 -0.0001007
vn 0.2987678 0.9253786 -0.2332644
v 0.0001447 0.0001516 -0.0000594
vn -0.7755699 0.4123605 -0.4779646
v -0.0000409 0.0000977 -0.0000815
vn -0.3862356 0.9086291 0.1587931
v 0.0000115 0.0001313 0.0000137
vn 0.5585709 -0.5660145 -0.6063218
v 0.0001044 0.0000739 -0.0000904
vn 0.8966366 -0.2997100 -0.3259091
v 0.0001664 0.0001223 -0.0000901
vn -0.0160321 -0.8055815 -0.5922680
v 0.0000568 0.0000075 -0.0000789
vn 0.1141644 -0.9799125 0.1635176
v 0.0000732 -0.0000006 0.0000002
vn 0.4869957 -0.5191159 0.7023916
v 0.0000782 0.0000733 0.0000208
vn 0.9083015 -0.4179462 0.0175910
v 0.0001342 0.0000270 -0.0000485
vn 0.0236398 -0.4596741 0.8877730
v 0.0000817 0.0000188 0.0000347
vn -0.6068866 -0.7539826 0.2513940
v 0.0000211 0.0000079 -0.0000208
vn -0.9544371 0.2959340 0.0383790
v 0.0000098 -0.0002044 0.0000280
vn -0.3265075 0.4137923 0.8498052
v 0.0000369 -0.0002434 0.0000603
vn -0.6842430 -0.3094182 0.6603574
v -0.0000222 -0.0002842 0.0000965
vn 0.1417479 -0.9002244 0.4117083
v 0.0000979 -0.0003027 0.0001035
vn 0.9848020 0.0256653 0.1717740
v 0.0001781 -0.0002810 0.0000539
vn 0.2115898 0.3262283 0.9213061
v 0.0001082 -0.0002736 0.0001268
vn 0.4737246 0.5646390 -0.6758460
v 0.0001473 -0.0002596 -0.0000607
vn 0.0467916 -0.7852691 -0.6173840
v 0.0000625 -0.0002901 -0.0000787
vn -0.4826867 0.2937449 -0.8250621
v -0.0000079 -0.0002661 -0.0000719
vn 0.5878772 -0.7145643 -0.3792074
v 0.0001726 -0.0002835 -0.0000288
vn -0.5976583 -0.7902180 -0.1354997
v -0.0000260 -0.0003008 0.0000220
vn 0.0721296 -0.9973916 -0.0027203
v 0.0000875 -0.0003069 0.0000259
vn -0.8713606 0.4491963 -0.1973660
v -0.0000285 -0.0002602 -0.0000101
vn 0.3884396 0.6977919 -0.6018315
v 0.0000956 -0.0002276 -0.0000326
vn 0.7809471 0.5989106 0.1772790
v 0.0001273 -0.0002187 0.0000378
vn -0.3053038 0.8998110 -0.3116564
v 0.0000466 -0.0001666 -0.0000185
vn -0.4310569 0.5822564 0.6893239
v 0.0000408 -0.0001787 0.0000739
vn 0.6465436 0.6145004 0.4520737
v 0.0001172 -0.0001821 0.0000449
vn 0.2196301 0.4574142 -0.8617046
v 0.0000803 -0.0001863 -0.0000357
# 252 vertices, 0 vertices normals


usemtl material_0
vt 0.2616900 0.3318000
vt 0.2612300 0.3317500
vt 0.2608300 0.3352200
f 33/1/33 1/2/1 13/3/13
vt 0.2612800 0.3352800
f 33/1/33 13/3/13 36/4/36
vt 0.6222200 0.3347300
vt 0.6211100 0.3382100
vt 0.6214900 0.3383000
f 1/5/1 14/6/14 13/7/13
vt 0.6310300 0.2418100
vt 0.6337000 0.2214300
vt 0.6322800 0.2215500
f 201/8/201 3/9/3 5/10/5
vt 0.6348500 0.2006600
f 5/10/5 3/9/3 4/11/4
vt 0.6279700 0.2608700
vt 0.6289700 0.2422200
f 6/12/6 201/8/201 5/13/5
vt 0.2739100 0.2435900
vt 0.2745900 0.2437000
vt 0.2772900 0.2269700
f 3/14/3 177/15/177 4/16/4
vt 0.6149300 0.2196400
vt 0.6165300 0.1989000
vt 0.6156200 0.1988000
f 200/17/200 7/18/7 8/19/8
vt 0.6152800 0.2596200
vt 0.6167300 0.2410100
vt 0.6148200 0.2402400
f 6/20/6 5/21/5 7/22/7
vt 0.6136500 0.2565000
f 6/20/6 7/22/7 179/23/179
vt 0.6136100 0.2393800
f 179/23/179 7/22/7 200/24/200
vt 0.6128900 0.3197300
vt 0.6111100 0.3227400
vt 0.6117500 0.3227400
f 192/25/192 9/26/9 41/27/41
vt 0.6107000 0.3259700
f 41/27/41 9/26/9 10/28/10
vt 0.6109000 0.3409600
vt 0.6108900 0.3441800
vt 0.6112900 0.3443900
f 10/29/10 11/30/11 43/31/43
vt 0.6109200 0.3334000
vt 0.6106300 0.3372200
vt 0.6110700 0.3372700
f 40/32/40 10/33/10 43/34/43
vt 0.6113100 0.3469100
vt 0.6118000 0.3472300
f 43/31/43 11/35/11 15/36/15
vt 0.6112900 0.3514300
vt 0.6100800 0.3550700
vt 0.6106200 0.3554000
f 11/37/11 12/38/12 17/39/17
vt 0.6109100 0.3467200
vt 0.6110500 0.3487900
f 11/35/11 10/40/10 12/41/12
vt 0.3647500 0.3794500
vt 0.3651600 0.3795500
vt 0.3650500 0.3778300
f 10/42/10 44/43/44 12/44/12
vt 0.6088400 0.3622800
f 17/39/17 12/38/12 16/45/16
vt 0.6183900 0.3524900
vt 0.6176200 0.3526900
vt 0.6171800 0.3572300
f 13/46/13 14/47/14 17/48/17
vt 0.6151500 0.3573100
vt 0.6167000 0.3528600
vt 0.6156600 0.3529500
f 17/49/17 14/50/14 11/51/11
vt 0.6171200 0.3500300
vt 0.6160100 0.3504500
f 11/51/11 14/52/14 15/53/15
vt 0.6028700 0.4064200
vt 0.5998000 0.4213000
vt 0.6004500 0.4216200
f 17/54/17 16/55/16 54/56/54
vt 0.6179900 0.3640500
vt 0.6172400 0.3644700
vt 0.6157200 0.3762600
f 13/57/13 17/58/17 45/59/45
vt 0.6080800 0.5420200
vt 0.6080900 0.5420200
f 175/60/175 18/61/18 35/60/35
vt 0.6080900 0.5420300
f 176/60/176 18/62/18 175/60/175
vt 0.6080800 0.5420300
f 176/63/176 34/62/34 18/62/18
vt 0.6081300 0.5420400
vt 0.6081400 0.5420500
f 34/64/34 36/65/36 32/65/32
f 34/64/34 32/65/32 18/65/18
vt 0.6081500 0.5420500
f 32/65/32 37/66/37 18/65/18
vt 0.6079200 0.5419600
vt 0.6078900 0.5419400
f 24/67/24 23/68/23 20/68/20
vt 0.6078600 0.5419300
f 23/68/23 19/69/19 20/68/20
vt 0.6078700 0.5419300
vt 0.6078500 0.5419300
f 23/70/23 96/69/96 19/71/19
vt 0.2819000 0.2321400
vt 0.2849500 0.2155800
vt 0.2814800 0.2291300
f 19/72/19 21/73/21 22/74/22
vt 0.2791400 0.2456000
f 20/75/20 19/72/19 22/74/22
vt 0.6079000 0.5419100
vt 0.6078700 0.5418900
f 24/76/24 25/76/25 26/77/26
vt 0.6079700 0.5419400
vt 0.6079400 0.5419200
f 29/78/29 25/79/25 24/79/24
vt 0.3750000 0.4506600
vt 0.3756100 0.4628800
vt 0.3762400 0.4627400
f 29/80/29 178/81/178 25/82/25
vt 0.3796400 0.4900900
vt 0.3791600 0.4929200
vt 0.3816700 0.5061200
f 26/83/26 25/84/25 125/85/125
vt 0.6078800 0.5419000
vt 0.6078700 0.5419000
f 23/86/23 26/86/26 96/87/96
vt 0.6079000 0.5419200
f 23/88/23 24/76/24 26/86/26
vt 0.6080900 0.5419900
vt 0.6081000 0.5419900
f 28/89/28 41/90/41 27/90/27
vt 0.6081100 0.5420000
vt 0.6081100 0.5419900
f 41/90/41 40/91/40 27/92/27
vt 0.6081200 0.5420000
f 40/91/40 30/93/30 27/92/27
vt 0.3692400 0.3953900
vt 0.3685300 0.3918300
vt 0.3688000 0.3954500
f 27/94/27 30/95/30 42/96/42
vt 0.3699600 0.4041700
vt 0.3697500 0.4018100
vt 0.3693000 0.4018400
f 29/97/29 27/98/27 42/99/42
vt 0.3694900 0.4042100
f 29/97/29 42/99/42 178/100/178
vt 0.6081600 0.5420200
vt 0.6081800 0.5420300
vt 0.6081700 0.5420300
f 30/101/30 169/102/169 31/103/31
vt 0.6082000 0.5420300
vt 0.6082200 0.5420400
f 169/104/169 56/105/56 31/105/31
vt 0.6081600 0.5420500
vt 0.6081700 0.5420600
vt 0.6081700 0.5420500
f 37/106/37 32/107/32 168/108/168
f 37/106/37 168/108/168 15/106/15
vt 0.2641700 0.3218800
vt 0.2638000 0.3249600
vt 0.2644900 0.3250600
f 174/109/174 33/110/33 34/111/34
vt 0.2630300 0.3186600
vt 0.2634400 0.3216900
vt 0.2637200 0.3191700
f 1/112/1 33/113/33 174/114/174
vt 0.6213600 0.3345800
vt 0.6213600 0.3308800
vt 0.6207600 0.3344700
f 1/115/1 18/116/18 14/117/14
vt 0.6224900 0.3240200
vt 0.6219800 0.3207400
vt 0.6210800 0.3214100
f 1/118/1 2/119/2 35/120/35
vt 0.6217500 0.3241200
f 1/118/1 35/120/35 18/121/18
vt 0.2629400 0.3319500
vt 0.2625200 0.3354300
vt 0.2631800 0.3355100
f 33/122/33 36/123/36 34/124/34
vt 0.6081500 0.5420400
vt 0.6081400 0.5420400
f 14/125/14 18/126/18 37/66/37
vt 0.2634100 0.3166200
vt 0.2633100 0.3173000
vt 0.2639300 0.3176000
f 2/127/2 1/128/1 174/129/174
vt 0.2656400 0.3165100
vt 0.2655600 0.3170100
vt 0.2662000 0.3171200
f 176/130/176 174/131/174 34/132/34
vt 0.6198900 0.3190600
vt 0.6176000 0.3184200
vt 0.6175200 0.3191200
f 2/133/2 192/134/192 35/135/35
vt 0.6154700 0.3193100
vt 0.6142200 0.3211100
vt 0.6157500 0.3200200
f 192/136/192 41/137/41 35/138/35
vt 0.6080800 0.5420000
vt 0.6080900 0.5420000
f 35/139/35 41/140/41 28/89/28
vt 0.3795200 0.5088400
vt 0.3802000 0.5206900
f 125/85/125 38/141/38 48/142/48
vt 0.3707400 0.4509500
vt 0.3727400 0.4631000
vt 0.3715900 0.4509000
f 200/143/200 39/144/39 199/145/199
vt 0.3718700 0.4631500
vt 0.3741700 0.4783200
f 200/146/200 8/147/8 39/144/39
vt 0.3756700 0.4944500
vt 0.3781000 0.5091600
vt 0.3767900 0.4943800
f 8/148/8 38/149/38 39/150/39
vt 0.3780600 0.4941300
f 39/151/39 38/141/38 125/85/125
f 39/151/39 125/85/125 25/84/25
vt 0.3747500 0.4629800
vt 0.3763200 0.4781400
vt 0.3772300 0.4777600
f 178/152/178 39/153/39 25/154/25
vt 0.6124400 0.3229800
vt 0.6118300 0.3261000
vt 0.6125500 0.3262200
f 41/155/41 10/156/10 40/157/40
vt 0.3668300 0.3956100
vt 0.3670500 0.3990500
vt 0.3677600 0.3989700
f 44/158/44 9/159/9 42/160/42
vt 0.3662300 0.3956400
f 10/161/10 9/159/9 44/158/44
vt 0.3679400 0.3919000
f 44/162/44 42/96/42 30/95/30
vt 0.6081600 0.5420300
f 43/163/43 15/103/15 169/102/169
f 43/163/43 169/102/169 30/101/30
vt 0.6081400 0.5420100
vt 0.6081500 0.5420200
f 40/164/40 43/165/43 30/165/30
vt 0.3669100 0.3777200
vt 0.3670300 0.3794600
vt 0.3675800 0.3793000
f 12/166/12 44/167/44 30/168/30
vt 0.3674600 0.3775200
f 12/166/12 30/168/30 31/169/31
vt 0.3656700 0.3695700
vt 0.3666000 0.3734700
vt 0.3663000 0.3694200
f 16/170/16 31/171/31 55/172/55
vt 0.3650400 0.3696300
vt 0.3653200 0.3736700
vt 0.3659600 0.3736200
f 16/173/16 12/174/12 31/175/31
vt 0.2597000 0.3494400
vt 0.2592300 0.3534000
vt 0.2597400 0.3533100
f 13/176/13 45/177/45 47/178/47
vt 0.2602100 0.3493700
f 13/176/13 47/178/47 36/179/36
vt 0.2614400 0.3494800
vt 0.2609500 0.3534200
vt 0.2614900 0.3535600
f 36/180/36 47/181/47 32/182/32
vt 0.6162700 0.3489700
vt 0.6177500 0.3475900
vt 0.6173500 0.3465800
f 15/183/15 14/184/14 37/185/37
vt 0.6078900 0.4213600
vt 0.6068500 0.4213700
vt 0.6050300 0.4318500
f 45/186/45 17/187/17 54/188/54
vt 0.6048600 0.4388100
vt 0.6031700 0.4434800
vt 0.6042200 0.4433400
f 45/189/45 54/190/54 60/191/60
vt 0.6088000 0.5423000
vt 0.6088000 0.5423100
vt 0.6088300 0.5423300
f 62/192/62 46/193/46 59/194/59
vt 0.6087600 0.5422800
f 56/195/56 46/193/46 62/192/62
vt 0.6087000 0.5422500
vt 0.6086900 0.5422600
vt 0.6087500 0.5422900
f 56/196/56 32/197/32 46/198/46
vt 0.6255800 0.1386100
vt 0.6266700 0.1364500
vt 0.6254200 0.1376700
f 48/199/48 49/200/49 124/201/124
vt 0.6261200 0.1416600
vt 0.6270600 0.1417100
vt 0.6277400 0.1386400
f 49/202/49 51/203/51 132/204/132
vt 0.6195600 0.1650200
vt 0.6222700 0.1542500
vt 0.6215900 0.1543100
f 38/205/38 50/206/50 48/207/48
vt 0.6240100 0.1467900
f 48/207/48 50/206/50 49/208/49
vt 0.6175000 0.1798800
vt 0.6183500 0.1799800
vt 0.6203300 0.1651000
f 8/209/8 7/210/7 50/211/50
f 8/209/8 50/211/50 38/205/38
vt 0.6196000 0.1800900
vt 0.6214400 0.1651900
f 7/210/7 5/212/5 50/213/50
vt 0.6230900 0.1653400
f 5/212/5 51/214/51 50/213/50
vt 0.6232400 0.1542700
vt 0.6260000 0.1467400
vt 0.6248400 0.1466600
f 50/215/50 51/216/51 49/217/49
vt 0.6342600 0.1815100
vt 0.6355800 0.1816300
vt 0.6357000 0.1665700
f 5/218/5 4/219/4 51/220/51
vt 0.2792000 0.2115000
vt 0.2819000 0.1995800
vt 0.2813500 0.1994500
f 4/221/4 52/222/52 51/223/51
vt 0.2830500 0.2124900
vt 0.2861200 0.2004500
f 52/224/52 21/73/21 135/225/135
vt 0.2847600 0.2001400
vt 0.2868800 0.1911400
f 52/226/52 135/225/135 53/227/53
vt 0.2835100 0.1909400
vt 0.2841200 0.1909700
vt 0.2851800 0.1851300
f 51/228/51 53/229/53 132/230/132
f 52/222/52 53/229/53 51/228/51
vt 0.5990400 0.4524800
vt 0.5978100 0.4531800
vt 0.5981200 0.4566900
f 63/231/63 54/232/54 67/233/67
vt 0.2554400 0.3885800
vt 0.2550100 0.3884900
vt 0.2549200 0.3893600
f 59/234/59 60/235/60 61/236/61
vt 0.2572600 0.3828300
vt 0.2563900 0.3852700
vt 0.2569500 0.3853200
f 47/237/47 45/238/45 46/239/46
vt 0.2582600 0.3788600
vt 0.2577500 0.3828500
f 32/240/32 47/237/47 46/241/46
vt 0.2556600 0.3866800
vt 0.2552100 0.3865700
vt 0.2551000 0.3875800
f 46/242/46 45/243/45 60/244/60
vt 0.2555500 0.3876800
f 46/242/46 60/244/60 59/245/59
vt 0.6086400 0.5421700
vt 0.6086400 0.5421800
vt 0.6087400 0.5422100
f 31/246/31 56/247/56 55/248/55
vt 0.6087300 0.5422200
vt 0.6088000 0.5422400
f 55/248/55 56/249/56 62/250/62
vt 0.3641300 0.3335600
vt 0.3644500 0.3334700
vt 0.3643300 0.3321200
f 57/251/57 55/252/55 62/253/62
vt 0.5978600 0.4327100
f 54/56/54 16/55/16 57/254/57
vt 0.3640200 0.3384000
vt 0.3645100 0.3383000
vt 0.3642900 0.3354300
f 16/255/16 55/256/55 57/257/57
vt 0.6026000 0.4712300
vt 0.6016900 0.4719400
vt 0.6034400 0.4744200
f 67/258/67 58/259/58 64/260/64
vt 0.6045000 0.4528600
vt 0.6039600 0.4562900
vt 0.6050300 0.4558600
f 60/261/60 54/262/54 61/263/61
vt 0.3630000 0.3323200
vt 0.3635500 0.3322700
vt 0.3634600 0.3310300
f 58/264/58 57/265/57 62/266/62
vt 0.5967900 0.4498900
vt 0.5960700 0.4536000
vt 0.5968200 0.4535300
f 54/267/54 57/268/57 58/269/58
vt 0.5971300 0.4571100
f 54/232/54 58/270/58 67/233/67
vt 0.2550200 0.3923500
vt 0.2545600 0.3929000
vt 0.2549500 0.3929800
f 61/271/61 68/272/68 59/273/59
vt 0.6091700 0.5425200
vt 0.6091500 0.5425300
vt 0.6091700 0.5425800
f 65/274/65 62/275/62 59/276/59
vt 0.3635500 0.3266800
vt 0.3637600 0.3257500
vt 0.3634800 0.3258100
f 62/277/62 65/278/65 64/279/64
vt 0.6064600 0.4611700
vt 0.6054200 0.4617200
vt 0.6064000 0.4641100
f 61/280/61 54/281/54 63/282/63
vt 0.6102200 0.4652900
vt 0.6111600 0.4676800
vt 0.6118800 0.4674700
f 61/283/61 63/284/63 68/285/68
vt 0.3626700 0.3277300
vt 0.3631200 0.3267400
vt 0.3626000 0.3267900
f 58/286/58 62/287/62 64/288/64
vt 0.6093100 0.5430200
vt 0.6092800 0.5430300
vt 0.6093100 0.5431000
f 65/289/65 59/290/59 73/291/73
vt 0.2551400 0.3987600
vt 0.2546400 0.3994400
vt 0.2550400 0.3994800
f 68/292/68 63/293/63 66/294/66
vt 0.6090700 0.5428200
vt 0.6090400 0.5428200
vt 0.6090500 0.5429100
f 73/295/73 59/296/59 68/297/68
vt 0.3620300 0.3187700
vt 0.3624900 0.3187300
vt 0.3624300 0.3180200
f 64/298/64 65/299/65 73/300/73
vt 0.3609300 0.3187600
vt 0.3611400 0.3180800
vt 0.3608900 0.3180500
f 64/301/64 73/302/73 67/303/67
vt 0.2533800 0.4049500
vt 0.2531600 0.4053100
vt 0.2533300 0.4054100
f 66/304/66 74/305/74 69/306/69
vt 0.6339500 0.4975100
vt 0.6331100 0.4974900
vt 0.6336400 0.4991000
f 66/307/66 63/308/63 74/309/74
vt 0.6325800 0.4993200
f 63/308/63 67/310/67 74/309/74
vt 0.3621800 0.3151300
vt 0.3625100 0.3150600
vt 0.3624800 0.3147700
f 67/311/67 73/312/73 70/313/70
vt 0.6094000 0.5437400
vt 0.6093900 0.5437800
vt 0.6094600 0.5438400
f 68/314/68 66/315/66 69/316/69
vt 0.2540900 0.4079900
vt 0.2538000 0.4083700
vt 0.2540300 0.4083700
f 74/317/74 77/318/77 71/319/71
vt 0.6101100 0.5440900
vt 0.6102400 0.5441500
vt 0.6102200 0.5441000
f 69/320/69 74/321/74 71/322/71
vt 0.6101000 0.5439900
vt 0.6101000 0.5440400
vt 0.6102000 0.5440500
f 73/323/73 69/324/69 71/325/71
vt 0.6096500 0.5438400
vt 0.6096300 0.5438800
vt 0.6097100 0.5439200
f 73/326/73 68/327/68 69/328/69
vt 0.3608000 0.3097400
vt 0.3610400 0.3094400
vt 0.3607800 0.3094300
f 70/329/70 72/330/72 82/331/82
vt 0.6101600 0.5436700
vt 0.6101700 0.5437100
vt 0.6102500 0.5437100
f 70/332/70 73/333/73 72/334/72
vt 0.6103500 0.5437500
vt 0.6104600 0.5437800
vt 0.6104400 0.5437400
f 73/335/73 71/336/71 72/337/72
vt 0.6342400 0.5208900
vt 0.6330500 0.5218000
vt 0.6335300 0.5223800
f 74/338/74 78/339/78 77/340/77
vt 0.6272600 0.5283600
vt 0.6269100 0.5281200
vt 0.6261600 0.5290100
f 78/341/78 82/342/82 75/343/75
vt 0.6255900 0.5287200
vt 0.6253100 0.5285500
vt 0.6243600 0.5294500
f 75/344/75 82/345/82 88/346/88
vt 0.6109900 0.5433400
vt 0.6112000 0.5431000
vt 0.6111500 0.5430700
f 72/347/72 76/348/76 79/349/79
vt 0.6304600 0.5236300
vt 0.6291000 0.5247200
vt 0.6296600 0.5249500
f 74/350/74 67/351/67 78/352/78
vt 0.6273300 0.5257700
vt 0.6268600 0.5256400
vt 0.6263400 0.5267300
f 67/353/67 70/354/70 82/355/82
vt 0.6288400 0.5262000
vt 0.6283500 0.5259700
vt 0.6276100 0.5271100
f 78/356/78 67/357/67 82/358/82
vt 0.6121400 0.5409700
vt 0.6122000 0.5409900
vt 0.6125700 0.5400900
f 79/359/79 76/360/76 80/361/80
vt 0.2533800 0.4132200
vt 0.2529700 0.4148400
vt 0.2531700 0.4148600
f 84/362/84 81/363/81 87/364/87
vt 0.2525200 0.4147800
vt 0.2523100 0.4147600
vt 0.2521100 0.4165800
f 81/365/81 75/366/75 86/367/86
vt 0.2523000 0.4166300
f 81/365/81 86/367/86 87/368/87
vt 0.3616100 0.3086000
vt 0.3618800 0.3085700
vt 0.3618100 0.3077200
f 82/369/82 72/370/72 79/371/79
vt 0.3606700 0.3078000
vt 0.3609300 0.3077900
vt 0.3608300 0.3063600
f 88/372/88 82/373/82 79/374/79
vt 0.6111800 0.5438300
vt 0.6112300 0.5438800
vt 0.6114000 0.5437100
f 71/375/71 77/376/77 83/377/83
vt 0.6113400 0.5436700
vt 0.6116000 0.5434100
f 71/378/71 83/377/83 84/379/84
vt 0.6115400 0.5433700
f 71/378/71 84/379/84 76/380/76
vt 0.6110900 0.5437400
vt 0.6112800 0.5436300
vt 0.6112300 0.5435800
f 71/381/71 76/382/76 72/383/72
vt 0.2530200 0.4107000
vt 0.2527600 0.4111600
vt 0.2529600 0.4112000
f 77/384/77 78/385/78 83/386/83
vt 0.2526600 0.4119300
f 83/386/83 78/385/78 75/387/75
vt 0.2528700 0.4119600
vt 0.2525200 0.4131100
vt 0.2527200 0.4131300
f 83/388/83 75/389/75 81/390/81
vt 0.2533200 0.4120100
vt 0.2530900 0.4119800
vt 0.2529500 0.4131600
f 84/391/84 83/392/83 81/393/81
vt 0.6134100 0.5391100
vt 0.6131100 0.5392800
vt 0.6131300 0.5393000
f 86/394/86 89/395/89 85/396/85
vt 0.6130700 0.5393200
f 85/396/85 89/395/89 80/397/80
vt 0.6131800 0.5395300
vt 0.6130800 0.5396800
vt 0.6131000 0.5398200
f 85/398/85 80/399/80 87/400/87
vt 0.2519600 0.4196500
vt 0.2520100 0.4207700
vt 0.2521200 0.4198600
f 86/401/86 85/402/85 87/403/87
vt 0.3601900 0.2968400
vt 0.3605100 0.2976600
vt 0.3604300 0.2964700
f 89/404/89 79/405/79 80/406/80
vt 0.6186400 0.5351700
vt 0.6184500 0.5349500
vt 0.6159400 0.5369000
f 75/407/75 88/408/88 86/409/86
vt 0.6158000 0.5367600
vt 0.6141600 0.5382700
f 86/409/86 88/410/88 89/411/89
vt 0.6121600 0.5421000
vt 0.6122300 0.5421400
vt 0.6126200 0.5412600
f 76/412/76 84/413/84 87/414/87
vt 0.6124800 0.5411500
vt 0.6128800 0.5403000
vt 0.6128300 0.5402400
f 76/415/76 87/416/87 80/417/80
vt 0.6151700 0.5361700
vt 0.6137400 0.5376600
vt 0.6137400 0.5378700
f 88/418/88 79/419/79 89/420/89
vt 0.4991200 0.1478700
f 183/421/183 90/421/90 91/421/91
vt 0.2894600 0.3407800
vt 0.2888300 0.3461300
vt 0.2895500 0.3461000
f 180/422/180 91/423/91 122/424/122
vt 0.4991200 0.1478600
vt 0.4991200 0.1478500
f 91/425/91 92/426/92 171/426/171
vt 0.4991300 0.1478400
vt 0.4991300 0.1478500
f 171/427/171 92/428/92 170/427/170
vt 0.2897500 0.3574600
vt 0.2890100 0.3574600
vt 0.2890900 0.3628300
f 122/429/122 91/430/91 171/431/171
vt 0.4991000 0.1479500
vt 0.4990900 0.1479600
f 94/432/94 93/432/93 95/433/95
f 94/432/94 95/433/95 96/433/96
vt 0.2857200 0.2325800
vt 0.2843000 0.2258100
f 95/434/95 21/73/21 19/435/19
f 96/433/96 95/433/95 19/433/19
vt 0.4991100 0.1479500
vt 0.4991100 0.1479600
f 94/436/94 97/437/97 185/436/185
vt 0.4991100 0.1479300
vt 0.4991100 0.1479400
vt 0.4991200 0.1479300
f 93/438/93 94/439/94 98/440/98
vt 0.4991000 0.1479600
f 94/436/94 96/441/96 97/437/97
vt 0.4991000 0.1479700
f 97/437/97 96/442/96 26/442/26
vt 0.3834800 0.4900700
vt 0.3815800 0.4963400
f 97/443/97 26/444/26 125/85/125
f 98/440/98 94/439/94 185/439/185
vt 0.4991300 0.1478700
f 99/445/99 101/445/101 126/445/126
vt 0.3920200 0.3796700
vt 0.3926200 0.3797500
vt 0.3925700 0.3746800
f 102/446/102 101/447/101 116/448/116
vt 0.4991400 0.1478600
vt 0.4991400 0.1478500
f 126/449/126 101/449/101 102/450/102
f 126/449/126 102/450/102 117/450/117
vt 0.4991400 0.1478400
vt 0.4991500 0.1478300
f 173/451/173 102/452/102 103/452/103
f 117/451/117 102/451/102 173/451/173
vt 0.4991300 0.1478200
vt 0.4991300 0.1478300
vt 0.4991300 0.1478100
f 128/453/128 171/454/171 104/455/104
vt 0.4991500 0.1477800
vt 0.4991400 0.1477800
f 171/455/171 103/456/103 104/457/104
vt 0.5314300 0.4028200
vt 0.5311000 0.3999700
vt 0.5307200 0.4000400
f 105/458/105 106/459/106 92/460/92
vt 0.2936900 0.3316000
vt 0.2934700 0.3357600
vt 0.2942500 0.3359100
f 212/461/212 181/462/181 106/463/106
vt 0.2945700 0.3323100
f 212/461/212 106/463/106 105/464/105
vt 0.5309500 0.4029400
vt 0.5302800 0.4001200
vt 0.5304300 0.4030700
f 105/465/105 92/466/92 90/467/90
vt 0.5307700 0.4053600
vt 0.5298300 0.4059200
f 105/468/105 90/467/90 182/469/182
vt 0.5289900 0.3906300
vt 0.5278200 0.3878200
vt 0.5286600 0.3907300
f 119/470/119 170/471/170 106/472/106
vt 0.2939900 0.3627500
vt 0.2948800 0.3673900
vt 0.2947400 0.3626800
f 127/473/127 119/474/119 106/475/106
vt 0.5274100 0.3879500
vt 0.5282500 0.3908400
f 106/472/106 170/476/170 92/477/92
vt 0.5361500 0.4638500
vt 0.5368700 0.4790400
vt 0.5379500 0.4791400
f 110/478/110 107/479/107 190/480/190
vt 0.5360000 0.4950500
vt 0.5365000 0.5095600
vt 0.5379500 0.5094400
f 107/481/107 123/482/123 108/483/108
vt 0.2916400 0.2280500
vt 0.2913200 0.2124300
vt 0.2906500 0.2124600
f 107/484/107 108/485/108 109/486/109
vt 0.2920700 0.2452900
vt 0.2909300 0.2280800
f 190/487/190 107/484/107 109/488/109
vt 0.5248000 0.4800100
vt 0.5238200 0.4802500
vt 0.5247300 0.4959800
f 110/489/110 112/490/112 123/491/123
vt 0.5231600 0.4803600
vt 0.5240700 0.4960200
f 112/490/112 114/492/114 113/493/113
f 112/490/112 113/493/113 123/491/123
vt 0.5246400 0.4505200
vt 0.5240400 0.4648100
vt 0.5254700 0.4642600
f 111/494/111 112/495/112 110/496/110
vt 0.5262900 0.4797900
vt 0.5257200 0.4958900
vt 0.5272100 0.4957700
f 110/497/110 123/498/123 107/499/107
vt 0.3966300 0.4009500
vt 0.3961700 0.3982500
vt 0.3963000 0.4015600
f 115/500/115 116/501/116 214/502/214
vt 0.5202600 0.4070600
vt 0.5202000 0.4048000
vt 0.5198700 0.4049300
f 115/503/115 126/504/126 116/505/116
vt 0.5186300 0.3789900
vt 0.5174200 0.3747100
vt 0.5168200 0.3750700
f 118/506/118 138/507/138 120/508/120
vt 0.3970300 0.3661300
vt 0.3964400 0.3635100
vt 0.3963900 0.3663100
f 126/509/126 118/510/118 116/511/116
vt 0.5197600 0.3831700
vt 0.5192100 0.3814400
vt 0.5193400 0.3835000
f 117/512/117 118/513/118 126/514/126
vt 0.2943600 0.3770300
vt 0.2952300 0.3812400
vt 0.2951500 0.3768100
f 127/515/127 121/516/121 119/517/119
vt 0.2944500 0.3814800
vt 0.2946000 0.3888800
vt 0.2953800 0.3886300
f 127/518/127 131/519/131 121/520/121
vt 0.5248700 0.3746500
vt 0.5236200 0.3666600
vt 0.5225100 0.3668200
f 119/521/119 121/522/121 138/523/138
vt 0.5190600 0.3742600
vt 0.5200700 0.3784100
vt 0.5210900 0.3783200
f 138/524/138 118/525/118 119/526/119
vt 0.5214400 0.3802700
f 118/525/118 117/527/117 119/526/119
vt 0.5120900 0.3155400
vt 0.5065200 0.2971600
vt 0.5106300 0.3154100
f 121/528/121 143/529/143 138/530/138
vt 0.2903900 0.3407500
vt 0.2915600 0.3460400
vt 0.2914600 0.3407000
f 180/531/180 122/532/122 181/533/181
vt 0.2925400 0.3406400
vt 0.2926500 0.3460100
vt 0.2935800 0.3460000
f 181/534/181 122/535/122 106/536/106
f 91/425/91 90/421/90 92/425/92
vt 0.2899300 0.3676400
vt 0.2899900 0.3715200
vt 0.2909700 0.3715200
f 122/537/122 171/538/171 127/539/127
vt 0.2927700 0.3517000
vt 0.2929000 0.3574000
vt 0.2938600 0.3573700
f 122/540/122 127/541/127 106/542/106
vt 0.5258800 0.5104100
vt 0.5266400 0.5218000
vt 0.5272100 0.5217800
f 113/543/113 124/544/124 123/545/123
vt 0.3871300 0.5097200
vt 0.3863100 0.5095900
vt 0.3852200 0.5212300
f 113/546/113 125/547/125 48/548/48
vt 0.3859600 0.5213500
f 113/546/113 48/548/48 124/549/124
vt 0.3872700 0.4624700
vt 0.3858300 0.4776500
vt 0.3867800 0.4780900
f 185/550/185 97/551/97 209/552/209
vt 0.3852200 0.4942300
f 97/551/97 125/553/125 209/552/209
vt 0.3889600 0.4784200
vt 0.3875900 0.4947500
vt 0.3884600 0.4948600
f 209/554/209 125/555/125 113/556/113
vt 0.3898300 0.4785200
f 209/554/209 113/556/113 114/557/114
vt 0.5219100 0.4044600
vt 0.5206600 0.4019200
vt 0.5212800 0.4047100
f 99/558/99 126/559/126 115/560/115
vt 0.5230600 0.4064900
f 182/561/182 99/558/99 115/560/115
vt 0.3927600 0.3898300
vt 0.3928300 0.3942700
vt 0.3936000 0.3942700
f 101/562/101 100/563/100 116/564/116
vt 0.3936500 0.3979800
f 100/563/100 214/565/214 116/564/116
vt 0.3924400 0.3485600
vt 0.3924200 0.3558400
vt 0.3933700 0.3562300
f 103/566/103 102/567/102 130/568/130
vt 0.3933600 0.3605900
f 102/567/102 116/569/116 130/568/130
vt 0.3955900 0.3564300
vt 0.3955600 0.3607500
vt 0.3964900 0.3606500
f 130/570/130 116/571/116 118/572/118
vt 0.3965400 0.3563400
f 130/570/130 118/572/118 120/573/120
vt 0.2901800 0.3820500
vt 0.2913100 0.3893100
vt 0.2911700 0.3818900
f 171/574/171 128/575/128 127/576/127
vt 0.2924600 0.3891800
f 127/576/127 128/575/128 131/577/131
f 172/427/172 119/427/119 117/427/117
f 172/427/172 170/427/170 119/427/119
vt 0.4991800 0.1476300
vt 0.4991900 0.1476300
vt 0.4991900 0.1476000
f 128/578/128 104/579/104 129/580/129
vt 0.5040000 0.2747000
vt 0.5039100 0.2686300
vt 0.5028200 0.2688700
f 121/581/121 131/582/131 143/583/143
vt 0.5034300 0.2644800
f 143/583/143 131/582/131 142/584/142
vt 0.2891000 0.1784400
vt 0.2890400 0.1809300
vt 0.2895500 0.1817400
f 132/585/132 53/586/53 133/587/133
vt 0.5323500 0.5425800
vt 0.5326100 0.5415200
vt 0.5320600 0.5415500
f 49/588/49 132/589/132 124/590/124
vt 0.5395000 0.5207900
vt 0.5384700 0.5292300
vt 0.5390100 0.5290900
f 108/591/108 133/592/133 134/593/134
vt 0.2910500 0.2001500
vt 0.2904600 0.2002000
f 109/486/109 108/594/108 134/595/134
vt 0.5379800 0.5209100
vt 0.5366800 0.5210100
vt 0.5366000 0.5294300
f 108/596/108 123/597/123 133/598/133
vt 0.5379000 0.5349800
vt 0.5372600 0.5351900
vt 0.5368000 0.5389700
f 133/599/133 124/600/124 132/601/132
vt 0.5351400 0.5295500
f 123/597/123 124/602/124 133/598/133
vt 0.2898100 0.2124800
f 135/603/135 109/486/109 134/595/134
vt 0.2896500 0.1913500
vt 0.2900600 0.1856700
vt 0.2895800 0.1854100
f 134/604/134 133/605/133 53/606/53
vt 0.2879000 0.1911900
f 135/225/135 134/607/134 53/227/53
vt 0.2924700 0.4473500
vt 0.2916100 0.4523700
vt 0.2925800 0.4524500
f 128/608/128 129/609/129 131/610/131
vt 0.2916800 0.4554600
f 131/610/131 129/609/129 142/611/142
vt 0.4964800 0.2824000
vt 0.4973700 0.2821600
vt 0.4949800 0.2725600
f 120/612/120 138/613/138 141/614/141
vt 0.4940700 0.2727500
f 120/612/120 141/614/141 137/615/137
vt 0.4925300 0.2661800
vt 0.4934700 0.2660500
vt 0.4926700 0.2611300
f 137/616/137 141/617/141 136/618/136
vt 0.4917100 0.2611900
f 137/616/137 136/618/136 140/619/140
vt 0.3972700 0.2799000
vt 0.3979500 0.2797900
vt 0.3979600 0.2769800
f 139/620/139 137/621/137 140/622/140
vt 0.3971900 0.2896000
vt 0.3978800 0.2894700
vt 0.3979200 0.2836300
f 130/623/130 120/624/120 137/625/137
vt 0.3972400 0.2837500
f 130/623/130 137/625/137 139/626/139
vt 0.4992300 0.1476000
vt 0.4992400 0.1475800
f 104/627/104 103/627/103 139/628/139
vt 0.3928000 0.2982400
vt 0.3938600 0.2896400
vt 0.3928800 0.2895100
f 103/629/103 130/630/130 139/631/139
vt 0.4961900 0.2726400
vt 0.4963000 0.2667600
vt 0.4947200 0.2662200
f 138/632/138 143/633/143 141/634/141
vt 0.4992300 0.1474600
vt 0.4992400 0.1474600
vt 0.4992300 0.1474400
f 129/635/129 140/636/140 144/637/144
vt 0.4979300 0.2323500
vt 0.5016900 0.2302400
vt 0.4999800 0.2288400
f 141/638/141 143/639/143 145/640/145
vt 0.4992000 0.1475400
vt 0.4992100 0.1475400
vt 0.4992000 0.1475200
f 142/641/142 129/642/129 147/643/147
vt 0.4992300 0.1475600
vt 0.4992400 0.1475400
f 104/644/104 139/645/139 129/645/129
vt 0.4992400 0.1475200
vt 0.4992400 0.1475000
f 129/646/129 139/646/139 140/647/140
vt 0.5043300 0.2266700
f 145/640/145 143/639/143 154/648/154
vt 0.5145900 0.2226800
vt 0.5163800 0.2240800
vt 0.5195600 0.2202200
f 154/649/154 143/650/143 146/651/146
vt 0.4920900 0.2384000
vt 0.4941200 0.2347200
vt 0.4932200 0.2345400
f 140/652/140 136/653/136 144/654/144
vt 0.4966200 0.2315100
f 136/655/136 141/638/141 145/640/145
vt 0.4947700 0.2308500
vt 0.4956600 0.2311000
vt 0.4977200 0.2275000
f 144/656/144 136/657/136 145/658/145
vt 0.4990800 0.1473500
vt 0.4991000 0.1473400
vt 0.4990700 0.1473200
f 147/659/147 129/660/129 144/661/144
vt 0.5087700 0.2358000
vt 0.5098500 0.2361500
vt 0.5125100 0.2327300
f 143/662/143 142/663/142 146/664/146
vt 0.2966000 0.4761400
vt 0.2960500 0.4762900
vt 0.2960700 0.4783200
f 146/665/146 142/666/142 147/667/147
vt 0.4995100 0.2234600
vt 0.5034100 0.2200600
vt 0.5025600 0.2196800
f 144/668/144 145/669/145 149/670/149
vt 0.5205000 0.1960300
vt 0.5215400 0.1963700
vt 0.5228400 0.1939500
f 149/671/149 145/672/145 154/673/154
vt 0.4990600 0.1471600
vt 0.4990600 0.1471400
f 144/674/144 149/675/149 148/675/148
vt 0.4990600 0.1471300
f 148/675/148 149/675/149 153/676/153
vt 0.5363300 0.1925100
vt 0.5380200 0.1899700
vt 0.5368400 0.1901800
f 146/677/146 151/678/151 154/679/154
vt 0.4989900 0.1472300
vt 0.4989900 0.1472000
vt 0.4989800 0.1472100
f 147/680/147 144/681/144 148/682/148
vt 0.2966700 0.4867300
vt 0.2961400 0.4869000
vt 0.2961400 0.4882000
f 146/683/146 147/684/147 151/685/151
vt 0.4989200 0.1471800
vt 0.4989200 0.1471600
vt 0.4989100 0.1471500
f 147/686/147 148/687/148 151/688/151
vt 0.5375000 0.1794900
vt 0.5386000 0.1789900
vt 0.5383800 0.1759200
f 154/689/154 151/690/151 150/691/150
vt 0.5249000 0.1826300
vt 0.5262500 0.1803100
vt 0.5252600 0.1805800
f 149/692/149 154/693/154 153/694/153
vt 0.5327200 0.1611800
vt 0.5334300 0.1603300
vt 0.5321500 0.1583600
f 154/695/154 150/696/150 162/697/162
vt 0.5326900 0.1574300
vt 0.5312300 0.1556000
f 162/697/162 150/698/150 155/699/155
vt 0.2931700 0.4992800
vt 0.2927200 0.5002700
vt 0.2932100 0.5004600
f 151/700/151 148/701/148 150/702/150
vt 0.2932600 0.5016000
vt 0.2927600 0.5014200
vt 0.2928100 0.5025300
f 150/703/150 148/704/148 155/705/155
vt 0.4990400 0.1469200
vt 0.4990600 0.1469000
vt 0.4990500 0.1468900
f 148/706/148 153/707/153 152/708/152
vt 0.5240800 0.1601900
vt 0.5239000 0.1580200
vt 0.5233100 0.1586200
f 153/709/153 154/710/154 152/711/152
vt 0.2938000 0.5172100
vt 0.2933700 0.5205700
vt 0.2938600 0.5205500
f 157/712/157 156/713/156 160/714/160
vt 0.2948700 0.5103300
vt 0.2941900 0.5103200
vt 0.2942300 0.5114500
f 162/715/162 155/716/155 157/717/157
vt 0.5229900 0.1564900
f 152/711/152 154/710/154 158/718/158
vt 0.4990600 0.1466600
vt 0.4991100 0.1466400
vt 0.4991000 0.1466200
f 155/719/155 148/720/148 157/721/157
vt 0.4991500 0.1466100
f 157/721/157 148/720/148 156/722/156
vt 0.5121500 0.1492600
vt 0.5122400 0.1489600
vt 0.5082600 0.1482800
f 159/723/159 158/724/158 160/725/160
vt 0.3956000 0.2199000
vt 0.3964700 0.2174300
vt 0.3955900 0.2174400
f 152/726/152 158/727/158 161/728/161
vt 0.3972000 0.2133000
vt 0.3964400 0.2133100
f 158/727/158 159/729/159 161/730/161
vt 0.5218800 0.1512200
vt 0.5222700 0.1507800
vt 0.5208700 0.1498800
f 154/731/154 162/732/162 158/733/158
vt 0.5191600 0.1486600
vt 0.5165000 0.1476000
vt 0.5163900 0.1481300
f 162/734/162 160/735/160 158/736/158
vt 0.4993400 0.1466100
vt 0.4993400 0.1466300
vt 0.4994100 0.1466300
f 156/737/156 152/738/152 161/739/161
vt 0.4994100 0.1466100
vt 0.4995300 0.1466500
f 156/740/156 161/739/161 166/741/166
vt 0.4993000 0.1466300
f 148/742/148 152/738/152 156/737/156
vt 0.2961300 0.5135600
vt 0.2956000 0.5150200
vt 0.2961600 0.5149900
f 162/743/162 157/744/157 160/745/160
vt 0.5011300 0.1469000
vt 0.5011300 0.1469300
vt 0.5012600 0.1469800
f 163/746/163 166/747/166 165/748/165
vt 0.5014300 0.1468200
vt 0.5016800 0.1468300
vt 0.5018600 0.1467100
f 165/749/165 159/750/159 163/751/163
vt 0.5010900 0.1470500
vt 0.5011800 0.1471100
vt 0.5012500 0.1470700
f 166/752/166 164/753/164 165/754/165
vt 0.5013000 0.1470500
vt 0.5013100 0.1470900
vt 0.5015800 0.1472600
f 165/755/165 164/756/164 159/757/159
vt 0.2934700 0.5252500
f 160/714/160 156/713/156 163/758/163
vt 0.5000700 0.1466200
vt 0.5004400 0.1467500
vt 0.5004500 0.1467200
f 156/759/156 166/760/166 163/761/163
vt 0.3962300 0.1939600
vt 0.3968800 0.1943400
vt 0.3966600 0.1903600
f 161/762/161 159/763/159 164/764/164
vt 0.5050500 0.1467400
vt 0.5029400 0.1465800
vt 0.5027700 0.1467400
f 160/765/160 163/766/163 159/767/159
vt 0.5007800 0.1469700
vt 0.5007500 0.1469800
vt 0.5010200 0.1470600
f 166/768/166 161/769/161 164/770/164
vt 0.6082300 0.5420800
vt 0.6082500 0.5420800
vt 0.6082200 0.5420600
f 32/771/32 56/772/56 169/773/169
vt 0.6081800 0.5420600
vt 0.6081900 0.5420600
f 32/774/32 169/775/169 168/774/168
vt 0.0390200 0.2857100
vt 0.0374800 0.2859000
vt 0.0379700 0.2870200
f 169/776/169 15/777/15 168/778/168
vt 0.1790400 0.2910600
vt 0.1779200 0.2897800
vt 0.1781500 0.2911600
f 171/779/171 170/780/170 167/781/167
vt 0.1782300 0.2879500
vt 0.1760500 0.2875200
vt 0.1772700 0.2886100
f 170/782/170 172/783/172 167/784/167
vt 0.4991400 0.1478300
f 173/785/173 167/785/167 172/785/172
f 117/451/117 173/451/173 172/451/172
vt 0.4991400 0.1478100
vt 0.4991400 0.1478200
f 103/786/103 171/787/171 173/787/173
vt 0.1738000 0.2970800
vt 0.1759000 0.2952300
vt 0.1744200 0.2958000
f 173/788/173 171/789/171 167/790/167
vt 0.3675700 0.4069800
vt 0.3683700 0.4073800
vt 0.3683400 0.4068800
f 9/791/9 199/792/199 42/793/42
vt 0.3691500 0.4073000
f 42/793/42 199/792/199 178/794/178
vt 0.2653000 0.3137100
vt 0.2658500 0.3153000
vt 0.2661000 0.3138400
f 174/795/174 176/796/176 177/797/177
vt 0.2642200 0.3107700
vt 0.2638200 0.3134800
vt 0.2645100 0.3135900
f 177/798/177 197/799/197 174/800/174
vt 0.2635900 0.3149500
vt 0.2641500 0.3157200
vt 0.2642700 0.3150500
f 197/801/197 2/802/2 174/803/174
vt 0.2665200 0.3154100
vt 0.2667800 0.3139600
f 177/797/177 176/804/176 22/805/22
vt 0.6080800 0.5419900
f 28/806/28 27/806/27 24/806/24
vt 0.6080700 0.5420100
f 175/807/175 35/807/35 28/807/28
vt 0.6258900 0.3153800
vt 0.6245400 0.3154000
vt 0.6257000 0.3158100
f 195/808/195 192/809/192 2/810/2
vt 0.2792200 0.2273300
vt 0.2775700 0.2442600
vt 0.2804500 0.2277400
f 52/811/52 177/812/177 22/813/22
vt 0.2754600 0.2438400
vt 0.2781400 0.2271200
f 4/16/4 177/814/177 52/815/52
f 52/224/52 22/74/22 21/73/21
vt 0.2911600 0.3253000
vt 0.2912200 0.3271800
vt 0.2922700 0.3271500
f 184/816/184 180/817/180 181/818/181
vt 0.2892200 0.3253600
vt 0.2901800 0.3272100
vt 0.2901200 0.3253300
f 95/819/95 180/820/180 184/821/184
vt 0.2921200 0.3216800
vt 0.2931000 0.3252600
vt 0.2930300 0.3216600
f 184/822/184 181/823/181 190/824/190
vt 0.4991300 0.1478800
f 182/825/182 183/825/183 99/825/99
f 183/825/183 98/825/98 101/825/101
f 99/825/99 183/825/183 101/825/101
vt 0.4991200 0.1478800
f 90/421/90 183/826/183 182/826/182
vt 0.4991100 0.1478800
f 183/826/183 91/827/91 180/827/180
f 183/826/183 180/827/180 93/826/93
vt 0.2864500 0.2296100
vt 0.2882000 0.2454500
vt 0.2876400 0.2283800
f 95/828/95 184/829/184 21/830/21
vt 0.2900300 0.2281000
vt 0.2904100 0.2453200
vt 0.2913300 0.2453000
f 21/831/21 184/832/184 190/833/190
f 21/831/21 190/833/190 109/488/109
f 135/603/135 21/831/21 109/488/109
vt 0.5223200 0.4465800
vt 0.5221100 0.4541200
vt 0.5226600 0.4537700
f 186/834/186 114/835/114 112/836/112
vt 0.5234600 0.4447600
vt 0.5228700 0.4459400
vt 0.5234100 0.4528100
f 187/837/187 186/838/186 112/839/112
f 187/837/187 112/839/112 111/494/111
vt 0.5228800 0.4420000
f 208/840/208 186/838/186 187/837/187
vt 0.5239700 0.4431300
f 208/840/208 187/837/187 188/841/188
vt 0.5250500 0.4447400
f 187/837/187 111/842/111 188/841/188
vt 0.5347700 0.4438700
vt 0.5356400 0.4518500
vt 0.5355200 0.4449600
f 111/843/111 110/844/110 189/845/189
vt 0.5365500 0.4527000
f 189/845/189 110/844/110 190/846/190
vt 0.5354900 0.4358900
vt 0.5360900 0.4388300
vt 0.5359100 0.4358700
f 189/847/189 190/848/190 212/849/212
vt 0.1023300 0.3203700
vt 0.1028900 0.3171500
vt 0.1024500 0.3169500
f 204/850/204 202/851/202 179/852/179
vt 0.1036100 0.3153300
vt 0.1039700 0.3139800
vt 0.1032000 0.3150100
f 202/853/202 191/854/191 179/855/179
vt 0.1043400 0.3144100
vt 0.1054700 0.3136900
vt 0.1051900 0.3131800
f 202/856/202 194/857/194 191/858/191
vt 0.6141000 0.2699600
vt 0.6136000 0.2677100
f 191/859/191 6/20/6 179/860/179
vt 0.1129300 0.3212300
vt 0.1112400 0.3184600
vt 0.1113300 0.3212400
f 193/861/193 194/862/194 196/863/196
vt 0.1094600 0.3211800
vt 0.1095100 0.3184100
vt 0.1077800 0.3182700
f 196/864/196 194/865/194 202/866/202
vt 0.1154800 0.3179700
vt 0.1142100 0.3166200
vt 0.1146900 0.3181600
f 201/867/201 194/868/194 193/869/193
vt 0.1149100 0.3163000
vt 0.1137100 0.3159200
f 201/870/201 191/871/191 194/868/194
vt 0.1159100 0.3210500
f 203/872/203 201/867/201 193/869/193
vt 0.1050900 0.3434800
vt 0.1054700 0.3448000
vt 0.1064000 0.3446600
f 204/873/204 192/874/192 196/875/196
vt 0.1047300 0.3407600
vt 0.1061500 0.3433600
vt 0.1059000 0.3407000
f 204/876/204 196/877/196 202/878/202
vt 0.1133800 0.3438600
vt 0.1126500 0.3410000
vt 0.1123400 0.3436500
f 203/879/203 193/880/193 195/881/195
vt 0.1111000 0.3408400
f 195/881/195 193/880/193 196/882/196
vt 0.1078100 0.3452100
vt 0.1066600 0.3452100
f 195/883/195 196/875/196 192/884/192
vt 0.6118400 0.3101200
vt 0.6116600 0.3081200
vt 0.6113300 0.3082200
f 192/885/192 204/886/204 198/887/198
vt 0.6110500 0.3083100
vt 0.6112100 0.3045700
vt 0.6108400 0.3046100
f 198/888/198 204/889/204 179/890/179
vt 0.6237500 0.3130200
vt 0.6258800 0.3131700
vt 0.6249900 0.3129300
f 195/891/195 197/892/197 203/893/203
vt 0.2632800 0.3134000
vt 0.2636600 0.3106800
f 197/894/197 177/798/177 3/895/3
vt 0.6266800 0.3101000
vt 0.6273300 0.3102000
vt 0.6276500 0.3063500
f 201/896/201 197/897/197 3/898/3
vt 0.6256500 0.3120800
vt 0.6263000 0.3122500
f 203/899/203 197/900/197 201/896/201
vt 0.6096100 0.3116300
vt 0.6095500 0.3106200
vt 0.6088900 0.3106100
f 9/901/9 198/902/198 199/903/199
vt 0.6101600 0.3084200
vt 0.6098200 0.3046100
vt 0.6096000 0.3084200
f 179/904/179 200/905/200 198/906/198
vt 0.6092300 0.3045700
vt 0.6089800 0.3084000
f 198/906/198 200/907/200 199/908/199
vt 0.6108300 0.3119100
vt 0.6104700 0.3115900
f 192/909/192 198/910/198 9/901/9
vt 0.6080600 0.5420100
vt 0.6080500 0.5420100
f 28/911/28 24/912/24 20/912/20
f 28/911/28 20/912/20 175/911/175
vt 0.6080600 0.5420200
f 175/911/175 20/912/20 176/913/176
vt 0.6080500 0.5420200
f 176/913/176 20/912/20 22/914/22
vt 0.6080800 0.5419800
vt 0.6080700 0.5419800
f 24/915/24 27/915/27 29/916/29
vt 0.3686400 0.4100600
vt 0.3689000 0.4127700
vt 0.3697200 0.4126900
f 199/917/199 39/918/39 178/919/178
vt 0.6272100 0.2729200
vt 0.6281800 0.2739700
vt 0.6277500 0.2713300
f 191/920/191 201/921/201 6/922/6
vt 0.6274500 0.3141200
vt 0.6265400 0.3138400
vt 0.6264500 0.3139900
f 2/923/2 197/924/197 195/925/195
vt 0.0409300 0.3558900
vt 0.0389800 0.3575300
vt 0.0409300 0.3574400
f 205/926/205 188/927/188 111/928/111
vt 0.0448400 0.3527600
vt 0.0429900 0.3558300
vt 0.0447400 0.3558200
f 207/929/207 205/930/205 111/931/111
vt 0.5325000 0.4127600
vt 0.5309700 0.4129000
vt 0.5319900 0.4131700
f 105/932/105 213/933/213 206/934/206
vt 0.0470400 0.3314000
vt 0.0459100 0.3283900
vt 0.0460700 0.3314500
f 212/935/212 206/936/206 207/937/207
vt 0.5311800 0.4122700
vt 0.5289300 0.4124200
vt 0.5292700 0.4129400
f 105/938/105 182/939/182 213/940/213
vt 0.5248100 0.4129200
vt 0.5239100 0.4136000
vt 0.5254100 0.4133500
f 182/941/182 211/942/211 213/943/213
vt 0.0466800 0.3577500
vt 0.0469900 0.3559200
vt 0.0460100 0.3558500
f 111/944/111 189/945/189 207/946/207
vt 0.0471100 0.3527400
vt 0.0461300 0.3527400
f 189/945/189 212/947/212 207/948/207
vt 0.0356800 0.3482600
vt 0.0357300 0.3531000
vt 0.0370200 0.3530400
f 208/949/208 188/950/188 205/951/205
vt 0.3948100 0.4095800
vt 0.3951300 0.4143300
vt 0.3955400 0.4096500
f 209/952/209 114/953/114 210/954/210
vt 0.3929000 0.4043000
vt 0.3935600 0.4049700
vt 0.3936100 0.4043500
f 100/955/100 210/956/210 214/957/214
vt 0.3928500 0.4049000
vt 0.3926800 0.4064100
vt 0.3934000 0.4064800
f 100/958/100 185/959/185 209/960/209
f 100/958/100 209/960/209 210/956/210
vt 0.5211400 0.4140900
vt 0.5206200 0.4156600
vt 0.5210300 0.4156900
f 211/961/211 210/962/210 186/963/186
vt 0.5206100 0.4132400
vt 0.5205600 0.4134200
vt 0.5210300 0.4134300
f 214/964/214 210/965/210 211/966/211
vt 0.5206500 0.4185200
f 186/963/186 210/962/210 114/967/114
vt 0.5221400 0.4142500
vt 0.5214100 0.4157200
vt 0.5218700 0.4157600
f 211/968/211 186/969/186 208/970/208
vt 0.0349400 0.3287200
vt 0.0357600 0.3318300
vt 0.0358900 0.3287800
f 211/971/211 208/972/208 213/973/213
vt 0.0370400 0.3318200
f 213/973/213 208/972/208 205/974/205
vt 0.5331100 0.4133800
vt 0.5340800 0.4147700
vt 0.5336700 0.4132300
f 206/975/206 212/976/212 105/977/105
vt 0.2937900 0.3252500
f 212/978/212 190/824/190 181/823/181
f 183/825/183 93/825/93 98/825/98
vt 0.3923000 0.4048400
f 98/979/98 185/959/185 100/958/100
vt 0.3923700 0.4042600
f 101/980/101 98/979/98 100/958/100
f 93/826/93 180/827/180 95/827/95
vt 0.0446700 0.3285100
vt 0.0429500 0.3286200
vt 0.0430100 0.3316200
f 206/981/206 213/982/213 205/983/205
vt 0.0447900 0.3315200
f 206/981/206 205/983/205 207/984/207
vt 0.5190200 0.4131000
vt 0.5199700 0.4131000
vt 0.5192700 0.4129900
f 214/985/214 211/986/211 182/987/182
vt 0.5211500 0.4090600
vt 0.5199300 0.4091600
vt 0.5193500 0.4094200
f 182/988/182 115/989/115 214/990/214
vt 0.1976000 0.3157800
vt 0.1974400 0.3157200
vt 0.1972900 0.3162100
f 232/991/232 230/992/230 215/993/215
vt 0.2002100 0.3223000
vt 0.2001600 0.3224200
vt 0.2005700 0.3225500
f 233/994/233 215/995/215 216/996/216
vt 0.1909800 0.2961900
vt 0.1906100 0.2968100
vt 0.1909200 0.2968200
f 233/997/233 216/998/216 228/999/228
vt 0.2053200 0.3133200
vt 0.2054300 0.3131900
vt 0.2052700 0.3130600
f 231/1000/231 226/1001/226 230/1002/230
vt 0.1931200 0.3248600
vt 0.1927500 0.3247200
vt 0.1929800 0.3249800
f 215/1003/215 221/1004/221 216/1005/216
vt 0.2135600 0.3203400
vt 0.2133900 0.3214900
vt 0.2137300 0.3203900
f 226/1006/226 217/1007/217 227/1008/227
vt 0.1908800 0.3191400
vt 0.1907800 0.3180200
vt 0.1906100 0.3180200
f 215/1009/215 230/1010/230 221/1011/221
vt 0.1410600 0.3269300
vt 0.1398200 0.3268800
vt 0.1410500 0.3270000
f 217/1012/217 216/1013/216 224/1014/224
vt 0.1265900 0.3414700
vt 0.1268900 0.3426700
vt 0.1266600 0.3414600
f 230/1015/230 220/1016/220 221/1017/221
vt 0.1293800 0.3310900
vt 0.1290500 0.3314800
vt 0.1291000 0.3315300
f 216/1018/216 221/1019/221 224/1020/224
vt 0.1433300 0.3488100
vt 0.1438000 0.3483300
vt 0.1432200 0.3485600
f 219/1021/219 218/1022/218 223/1023/223
vt 0.1354000 0.3503500
vt 0.1364800 0.3506600
vt 0.1365400 0.3503800
f 220/1024/220 218/1025/218 219/1026/219
vt 0.1317900 0.3463300
vt 0.1326800 0.3468200
vt 0.1320000 0.3461400
f 220/1027/220 219/1028/219 225/1029/225
vt 0.1295000 0.3420300
vt 0.1297800 0.3429700
vt 0.1300400 0.3428800
f 221/1030/221 220/1031/220 225/1032/225
vt 0.1306800 0.3340500
vt 0.1304000 0.3346200
vt 0.1306400 0.3347500
f 224/1033/224 221/1034/221 225/1035/225
vt 0.1092400 0.2910000
vt 0.1083100 0.2911600
vt 0.1083300 0.2914200
f 222/1036/222 224/1037/224 225/1038/225
vt 0.1429400 0.3290600
vt 0.1418900 0.3287500
vt 0.1418300 0.3290300
f 217/1039/217 224/1040/224 222/1041/222
vt 0.1496800 0.3410800
vt 0.1497800 0.3400500
vt 0.1495000 0.3400400
f 223/1042/223 227/1043/227 217/1044/217
vt 0.1480700 0.3408500
vt 0.1478900 0.3399800
vt 0.1478100 0.3408300
f 217/1045/217 222/1046/222 223/1047/223
vt 0.1478700 0.3464400
vt 0.1480600 0.3462000
vt 0.1478300 0.3460300
f 218/1048/218 227/1049/227 223/1050/223
vt 0.1116200 0.3089500
vt 0.1109800 0.3095900
vt 0.1110600 0.3097200
f 222/1051/222 225/1052/225 219/1053/219
vt 0.1136700 0.3090400
vt 0.1143100 0.3083400
vt 0.1140800 0.3082900
f 219/1054/219 223/1055/223 222/1056/222
vt 0.2064300 0.3130300
vt 0.2071700 0.3128700
vt 0.2068500 0.3125700
f 230/1057/230 227/1058/227 218/1059/218
vt 0.2046700 0.3224300
vt 0.2041700 0.3226300
vt 0.2042400 0.3228200
f 226/1060/226 216/1061/216 217/1062/217
vt 0.2046200 0.3223300
f 228/1063/228 216/1061/216 226/1060/226
vt 0.1987800 0.3126600
vt 0.1989600 0.3118100
vt 0.1984200 0.3121700
f 230/1064/230 218/1065/218 220/1066/220
vt 0.2068400 0.3139100
vt 0.2069500 0.3140300
vt 0.2072500 0.3138100
f 230/1067/230 226/1068/226 227/1069/227
vt 0.0588200 0.2956100
vt 0.0586200 0.2951600
vt 0.0585400 0.2954400
f 231/1070/231 229/1071/229 228/1072/228
vt 0.1571400 0.2946400
vt 0.1566800 0.2946600
vt 0.1571000 0.2947700
f 233/1073/233 229/1074/229 232/1075/232
vt 0.1554200 0.2947800
vt 0.1551700 0.2950500
vt 0.1555600 0.2950300
f 233/1076/233 228/1077/228 229/1078/229
vt 0.1603700 0.2984500
vt 0.1601300 0.2980400
vt 0.1602000 0.2984400
f 231/1079/231 232/1080/232 229/1081/229
vt 0.1610200 0.2988500
vt 0.1608000 0.2983900
vt 0.1608600 0.2988600
f 230/1082/230 232/1083/232 231/1084/231
vt 0.1580700 0.2915900
vt 0.1573000 0.2916400
vt 0.1580000 0.2918200
f 215/1085/215 233/1086/233 232/1087/232
vt 0.1526500 0.3044400
vt 0.1531700 0.3047400
vt 0.1532500 0.3046000
f 228/1088/228 226/1089/226 231/1090/231
vt 0.0929600 0.2965100
vt 0.0933700 0.2963900
vt 0.0931500 0.2957900
f 250/1091/250 234/1092/234 235/1093/235
vt 0.0073100 0.3158100
vt 0.0071400 0.3157800
vt 0.0070900 0.3162900
f 251/1094/251 235/1095/235 248/1096/248
vt 0.0171900 0.3178000
vt 0.0173500 0.3178400
vt 0.0174500 0.3173400
f 252/1097/252 247/1098/247 246/1099/246
vt 0.0173400 0.3163300
vt 0.0174600 0.3158100
vt 0.0172900 0.3158300
f 252/1100/252 246/1101/246 234/1102/234
vt 0.0883600 0.3049000
vt 0.0883900 0.3052200
vt 0.0890400 0.3051000
f 234/1103/234 246/1104/246 235/1105/235
vt 0.0149600 0.2903100
vt 0.0153000 0.2906100
vt 0.0155800 0.2904500
f 251/1106/251 252/1107/252 249/1108/249
vt 0.0027200 0.3120000
vt 0.0032100 0.3110800
vt 0.0026800 0.3107600
f 248/1109/248 235/1110/235 239/1111/239
vt 0.0087500 0.3065600
vt 0.0097400 0.3062700
vt 0.0096000 0.3056700
f 239/1112/239 235/1113/235 236/1114/236
vt 0.0007300 0.3170800
vt 0.0005600 0.3159400
vt 0.0005500 0.3170900
f 248/1115/248 239/1116/239 238/1117/238
vt 0.0177200 0.3256700
vt 0.0168100 0.3261600
vt 0.0170700 0.3267200
f 242/1118/242 247/1119/247 240/1120/240
vt 0.1637000 0.3507600
vt 0.1647700 0.3514400
vt 0.1648000 0.3513800
f 239/1121/239 236/1122/236 237/1123/237
vt 0.1690200 0.3496300
vt 0.1699700 0.3495400
vt 0.1690900 0.3493600
f 236/1124/236 244/1125/244 245/1126/245
vt 0.1672700 0.3490100
vt 0.1681300 0.3493600
vt 0.1682200 0.3491100
f 237/1127/237 236/1128/236 245/1129/245
vt 0.1590800 0.3398700
vt 0.1590900 0.3410600
vt 0.1593400 0.3410400
f 238/1130/238 239/1131/239 237/1132/237
vt 0.1637600 0.3344000
vt 0.1635800 0.3346000
vt 0.1638000 0.3347600
f 243/1133/243 238/1134/238 245/1135/245
vt 0.1718300 0.3293000
vt 0.1707500 0.3293000
vt 0.1707600 0.3295800
f 240/1136/240 243/1137/243 241/1138/241
vt 0.1785900 0.3305300
vt 0.1775800 0.3298700
vt 0.1774500 0.3300900
f 242/1139/242 240/1140/240 241/1141/241
vt 0.1805100 0.3426900
vt 0.1806900 0.3417800
vt 0.1804200 0.3417400
f 244/1142/244 242/1143/242 241/1144/241
vt 0.1800800 0.3460900
vt 0.1803700 0.3455000
vt 0.1801200 0.3453700
f 246/1145/246 242/1146/242 244/1147/244
vt 0.1273000 0.3116200
vt 0.1270700 0.3120200
vt 0.1272300 0.3118900
f 245/1148/245 238/1149/238 237/1150/237
vt 0.1343800 0.3074300
vt 0.1346600 0.3070200
vt 0.1344500 0.3070400
f 245/1151/245 241/1152/241 243/1153/243
vt 0.1773900 0.3503200
vt 0.1775100 0.3499000
vt 0.1772400 0.3500800
f 236/1154/236 246/1155/246 244/1156/244
vt 0.1785000 0.3514200
vt 0.1788700 0.3510500
vt 0.1784500 0.3513500
f 235/1157/235 246/1158/246 236/1159/236
vt 0.1645400 0.3293300
vt 0.1642500 0.3295900
vt 0.1645700 0.3293900
f 240/1160/240 238/1161/238 243/1162/243
vt 0.1442800 0.3156700
vt 0.1432400 0.3165100
vt 0.1433200 0.3166000
f 241/1163/241 245/1164/245 244/1165/244
vt 0.0171100 0.3201600
vt 0.0171900 0.3210200
vt 0.0176000 0.3205200
f 247/1166/247 242/1167/242 246/1168/246
vt 0.0065200 0.3215500
vt 0.0063100 0.3213500
vt 0.0054500 0.3220400
f 247/1169/247 248/1170/248 238/1171/238
vt 0.0056900 0.3222700
f 247/1169/247 238/1171/238 240/1172/240
vt 0.1586900 0.3208400
vt 0.1587900 0.3207500
vt 0.1586000 0.3206000
f 234/1173/234 250/1174/250 249/1175/249
vt 0.0203100 0.2816000
vt 0.0192200 0.2819900
vt 0.0200500 0.2820600
f 250/1176/250 251/1177/251 249/1178/249
vt 0.0890300 0.2946800
vt 0.0886300 0.2945800
vt 0.0889800 0.2947600
f 235/1179/235 251/1180/251 250/1181/250
vt 0.1501400 0.3145800
vt 0.1499700 0.3150800
vt 0.1501300 0.3151200
f 248/1182/248 247/1183/247 252/1184/252
vt 0.1507400 0.3144100
vt 0.1506000 0.3147600
vt 0.1507500 0.3148200
f 248/1185/248 252/1186/252 251/1187/251
vt 0.1545900 0.3248100
vt 0.1553200 0.3249400
vt 0.1553500 0.3246900
f 252/1188/252 234/1189/234 249/1190/249
# 500 faces, 1190 coords texture

# End of File
